<svg xmlns="http://www.w3.org/2000/svg" viewBox="0 0 780 400" font-family="Segoe UI, Helvetica, Arial, sans-serif">
<rect x="0" y="0" width="780" height="400" rx="10" fill="#ffffff" stroke="#e2e2e2"/>
<text x="20" y="26" font-size="16" font-weight="bold" fill="#111">Spiking Neural Data Lake — results by version</text>
<text x="205.0" y="46" font-size="15" font-weight="bold" text-anchor="middle" fill="#222">Test accuracy (%)</text><text x="205.0" y="392" font-size="11" text-anchor="middle" fill="#888">classifier versions  (MNIST chance = 10%)</text><line x1="40" y1="320" x2="370" y2="320" stroke="#d9d9d9" stroke-width="1.5"/>
<line x1="40" y1="295.0" x2="370" y2="295.0" stroke="#c0392b" stroke-width="1" stroke-dasharray="4 3"/>
<text x="368" y="291.0" font-size="9" text-anchor="end" fill="#c0392b">chance 10%</text>
<rect x="54.5" y="70.0" width="37.0" height="250.0" rx="3" fill="#2a9d8f"/>
<text x="73.0" y="64.0" font-size="13" font-weight="bold" text-anchor="middle" fill="#333333">100.0</text>
<text x="73.0" y="338.0" font-size="13" text-anchor="middle" fill="#333333">v0.2</text>
<text x="73.0" y="353.0" font-size="10" text-anchor="middle" fill="#888">4-shape</text>
<rect x="120.5" y="133.5" width="37.0" height="186.5" rx="3" fill="#2a9d8f"/>
<text x="139.0" y="127.5" font-size="13" font-weight="bold" text-anchor="middle" fill="#333333">74.6</text>
<text x="139.0" y="338.0" font-size="13" text-anchor="middle" fill="#333333">v0.3</text>
<text x="139.0" y="353.0" font-size="10" text-anchor="middle" fill="#888">MNIST</text>
<rect x="186.5" y="116.2" width="37.0" height="203.8" rx="3" fill="#2a9d8f"/>
<text x="205.0" y="110.2" font-size="13" font-weight="bold" text-anchor="middle" fill="#333333">81.5</text>
<text x="205.0" y="338.0" font-size="13" text-anchor="middle" fill="#333333">v0.5</text>
<text x="205.0" y="353.0" font-size="10" text-anchor="middle" fill="#888">MNIST</text>
<rect x="252.5" y="134.0" width="37.0" height="186.0" rx="3" fill="#2a9d8f"/>
<text x="271.0" y="128.0" font-size="13" font-weight="bold" text-anchor="middle" fill="#333333">74.4</text>
<text x="271.0" y="338.0" font-size="13" text-anchor="middle" fill="#333333">v0.6</text>
<text x="271.0" y="353.0" font-size="10" text-anchor="middle" fill="#888">MNIST</text>
<rect x="318.5" y="114.2" width="37.0" height="205.8" rx="3" fill="#2a9d8f"/>
<text x="337.0" y="108.2" font-size="13" font-weight="bold" text-anchor="middle" fill="#333333">82.3</text>
<text x="337.0" y="338.0" font-size="13" text-anchor="middle" fill="#333333">v0.8</text>
<text x="337.0" y="353.0" font-size="10" text-anchor="middle" fill="#888">tuned</text>
<text x="585.0" y="46" font-size="15" font-weight="bold" text-anchor="middle" fill="#222">Compute reduction (x)</text><text x="585.0" y="392" font-size="11" text-anchor="middle" fill="#888">spiking vs dense baseline  (higher = less power)</text><line x1="420" y1="320" x2="750" y2="320" stroke="#d9d9d9" stroke-width="1.5"/>
<rect x="438.1" y="94.0" width="46.2" height="226.0" rx="3" fill="#e9a23b"/>
<text x="461.2" y="88.0" font-size="13" font-weight="bold" text-anchor="middle" fill="#333333">24x</text>
<text x="461.2" y="338.0" font-size="13" text-anchor="middle" fill="#333333">v0.3</text>
<rect x="520.6" y="93.1" width="46.2" height="226.9" rx="3" fill="#e9a23b"/>
<text x="543.8" y="87.1" font-size="13" font-weight="bold" text-anchor="middle" fill="#333333">24x</text>
<text x="543.8" y="338.0" font-size="13" text-anchor="middle" fill="#333333">v0.5</text>
<rect x="603.1" y="281.5" width="46.2" height="38.5" rx="3" fill="#e9a23b"/>
<text x="626.2" y="275.5" font-size="13" font-weight="bold" text-anchor="middle" fill="#333333">4x</text>
<text x="626.2" y="338.0" font-size="13" text-anchor="middle" fill="#333333">v0.4</text>
<rect x="685.6" y="291.2" width="46.2" height="28.8" rx="3" fill="#e9a23b"/>
<text x="708.8" y="285.2" font-size="13" font-weight="bold" text-anchor="middle" fill="#333333">3x</text>
<text x="708.8" y="338.0" font-size="13" text-anchor="middle" fill="#333333">v0.6</text>
</svg>